<svg width="130" height="78" viewBox="0 0 130 78" fill="none" xmlns="http://www.w3.org/2000/svg">
<path d="M21.1541 65.8841V13.5226H30.7973C32.9405 13.5226 34.3692 15.6818 34.8157 16.7614L50.6215 52.9286L67.5 13.5226C60.857 6.82907 55.4444 4.07601 53.5684 3.53618C29.565 -5.96445 12.4918 9.1142 6.95565 17.8411C-7.18922 40.5131 5.16969 60.7559 13.1172 68.0433C36.4777 86.6127 59.1059 73.6213 67.5 64.8045V41.5927C64.821 46.9008 59.2488 58.4347 58.3916 62.1054C57.5343 65.7761 55.7126 67.5935 54.9089 68.0433C52.9444 67.8634 48.4794 67.6115 46.3363 68.0433C44.1931 68.4752 42.9429 66.7838 42.5857 65.8841L32.1378 41.5927V69.6627C30.4411 69.8427 26.5656 70.0946 24.6367 69.6627C22.7079 69.2309 21.5113 66.9637 21.1541 65.8841Z" fill="black" stroke="#FA640D"/>
<path d="M70.7578 60.7107V52.6027H116.876V45.0546H81.5417C73.2817 43.9362 72.8228 38.3444 71.6756 35.269C70.7578 32.8086 71.2932 24.1786 71.6756 20.1712C72.4098 14.3557 78.5589 11.9699 81.5417 11.5039H123.989C127.477 11.9512 128.807 15.0454 129.037 16.5365V26.0425H82.4595V32.1927C91.2549 31.9131 110.773 31.5216 118.482 32.1927C126.192 32.8637 128.731 38.6232 129.037 41.4191V56.5169C128.119 63.0034 122.383 65.5569 119.63 66.0229H75.5762C71.7215 64.9046 70.7578 62.0155 70.7578 60.7107Z" fill="#FA640D" stroke="#FA640D"/>
</svg>
